<svg width="20" height="20" viewBox="0 0 20 20" fill="none" xmlns="http://www.w3.org/2000/svg">
<path d="M5.93451 13.0053C5.64162 13.2982 5.64162 13.7731 5.93451 14.066C6.22741 14.3589 6.70228 14.3589 6.99517 14.066L5.93451 13.0053ZM14.2859 6.46458C14.2859 6.05036 13.9501 5.71458 13.5359 5.71458L6.78591 5.71458C6.3717 5.71458 6.03591 6.05036 6.03591 6.46458C6.03591 6.87879 6.3717 7.21458 6.78591 7.21458H12.7859V13.2146C12.7859 13.6288 13.1217 13.9646 13.5359 13.9646C13.9501 13.9646 14.2859 13.6288 14.2859 13.2146L14.2859 6.46458ZM6.99517 14.066L14.0662 6.99491L13.0056 5.93425L5.93451 13.0053L6.99517 14.066Z" fill="#5D37F3"/>
</svg>
